{"title":"Whales.Of.Atlantis.In.Search.Of.Moby.Dick.2007.DVDRip.XViD-SPRiN","uid":6170193,"size":789775733,"categoryP":"video","categoryS":"movies","magnet":"?xt=urn:btih:f45dbf92aebd603c31ac00f75ba20c42a4c5b29f&amp;dn=Whales.Of.Atlantis.In.Search.Of.Moby.Dick.2007.DVDRip.XViD-SPRiN&amp;tr=udp%3A%2F%2Ftracker.openbittorrent.com%3A80&amp;tr=udp%3A%2F%2Fopen.demonii.com%3A1337&amp;tr=udp%3A%2F%2Ftracker.coppersurfer.tk%3A6969&amp;tr=udp%3A%2F%2Fexodus.desync.com%3A6969","seeders":0,"leechers":1,"uploader":"sceneline","files":58,"time":1297538259,"description":"- &lt;a href=&quot;\nhttp://www.torrentkit.com&quot; rel=&quot;nofollow&quot; target=&quot;_NEW&quot;&gt;\nhttp://www.torrentkit.com&lt;/a&gt;  \n\nwho care what we share! support us by seeding back,\nand don't forget to visit www.torrentkit.com\n-\n                                                     \n                                                   \n                                                         \n                                                          \n                                                           \n                                                          \n                                                          \n                                                          \n                                                           \n                                                         \n                                                          \n                                                        \n                                                      \n                                     \n                                                 \n                                                   \n                                             \n                                              \n                                                     \n                                                      \n                                                      \n                                                      \n                                                    \n                                                     \n                                                   \n                                                     \n                                                     \n                                                      \n                                                     \n                                                      \n                                                    \n                 ARTiCHOKE                        \n                                                \n                      \n                                                        \n                                                      \n                                                      \n                                               \n                                          \n                                                   \n                                            \n                                                    \n                                                       \n                                                        \n                                                      \n                                                \n                                                        \n                                                 \n                                              \n                                                  \n                                                \n                                                  \n                                        \n\n      \n                                \n      SPRiNTER proudly presents...     \n                                \n      \n \nWhales.Of.Atlantis.In.Search.Of.Moby.Dick.2007.DVDRip.XViD-SPRiNTER &lt;a href=&quot;\nhttp://www.amazon.com/Whales-Atlantis-Search-Moby-Dick/dp/B000XV6ZE6&quot; rel=&quot;nofollow&quot; target=&quot;_NEW&quot;&gt;\nhttp://www.amazon.com/Whales-Atlantis-Search-Moby-Dick/dp/B000XV6ZE6&lt;/a&gt;\n\n\nDate: 2011.02\nGenre: Docu\nPlot : Sail into the adventure and mythology of Moby Dick with filmmaker Jean-Christophe Jeauffre and his crew \n\t as they travel to the Azores, home of the legendary white whale and fabled resting place of the lost continent of \n\t Atlantis. This final segment in the landmark Jules Verne Adventure Expeditions series reveals the true story of the sperm \n\t whales that inspired Herman Melville's classic. Christopher Lee narrates.\n\n\n\n      \n                 \n      Release notes     \n                 \n      \n\n     Hybrid source.\n\n\n      \n           \n     Greetings    \n           \n      \n\n\nNTX aAF FiCO HNR CiNEFiLE AEN HUMANiSM SSF\n\n\n      \n           \n      Details     \n           \n      \n\n\nFormat                           : AVI\nFormat/Info                      : Audio Video Interleave\nFile size                        : 695 MiB\nDuration                         : 52mn 42s\nOverall bit rate                 : 1 844 Kbps\nWriting application              : Nandub v1.0rc2\nWriting library                  : Nandub build 1852/release\n\nVideo\nID                               : 0\nFormat                           : MPEG-4 Visual\nFormat profile                   : AdvancedSimple@L5\nFormat settings, BVOP            : No\nFormat settings, QPel            : No\nFormat settings, GMC             : No warppoints\nFormat settings, Matrix          : Default (H.263)\nCodec ID                         : XVID\nCodec ID/Hint                    : XviD\nDuration                         : 52mn 42s\nBit rate                         : 1 691 Kbps\nWidth                            : 576 pixels\nHeight                           : 320 pixels\nDisplay aspect ratio             : 16:9\nFrame rate                       : 29.970 fps\nResolution                       : 24 bits\nColorimetry                      : 4:2:0\nScan type                        : Progressive\nBits/(Pixel*Frame)               : 0.306\nStream size                      : 637 MiB (92%)\nWriting library                  : XviD 1.2.1 (UTC 2008-12-04)\n\nAudio\nID                               : 1\nFormat                           : MPEG Audio\nFormat version                   : Version 1\nFormat profile                   : Layer 3\nCodec ID                         : 55\nCodec ID/Hint                    : MP3\nDuration                         : 52mn 42s\nBit rate mode                    : Variable\nBit rate                         : 140 Kbps\nChannel(s)                       : 2 channels\nSampling rate                    : 48.0 KHz\nResolution                       : 16 bits\nStream size                      : 52.6 MiB (8%)\nAlignment                        : Aligned on interleaves\nInterleave, duration             : 24 ms (0.72 video frame)\nInterleave, preload duration     : 456 ms\nWriting library                  : LAME3.89 (alpha)","torrent":{"xt":"urn:btih:f45dbf92aebd603c31ac00f75ba20c42a4c5b29f","amp;dn":"Whales.Of.Atlantis.In.Search.Of.Moby.Dick.2007.DVDRip.XViD-SPRiN","amp;tr":["udp%3A%2F%2Ftracker.openbittorrent.com%3A80","udp%3A%2F%2Fopen.demonii.com%3A1337","udp%3A%2F%2Ftracker.coppersurfer.tk%3A6969","udp%3A%2F%2Fexodus.desync.com%3A6969"],"infoHash":"f45dbf92aebd603c31ac00f75ba20c42a4c5b29f","infoHashBuffer":{"type":"Buffer","data":[244,93,191,146,174,189,96,60,49,172,0,247,91,162,12,66,164,197,178,159]},"announce":[],"urlList":[]}}